<?xml version="1.0" encoding="utf-8"?>
<!-- Generator: Adobe Illustrator 27.0.0, SVG Export Plug-In . SVG Version: 6.00 Build 0)  -->
<svg version="1.1" id="logo" xmlns="http://www.w3.org/2000/svg" xmlns:xlink="http://www.w3.org/1999/xlink" x="0px" y="0px"
	 viewBox="0 0 216 216" style="enable-background:new 0 0 216 216;" xml:space="preserve">
<style type="text/css">
	.st0{fill:#201E5A;}
	.st1{fill:#CCEBF3;}
</style>
<rect class="st0" width="216" height="216"/>
<circle class="st1" cx="146.5" cy="108.5" r="62.5"/>
<circle class="st0" cx="115" cy="99" r="58"/>
<polygon class="st1" points="94,161.34 99.48,172.45 111.74,174.24 102.87,182.88 104.97,195.09 94,189.33 83.03,195.09 
	85.13,182.88 76.26,174.24 88.52,172.45 "/>
<polygon class="st1" points="117.6,137.55 113.83,133.82 108.63,134.81 111.01,130.07 108.46,125.42 113.7,126.23 117.33,122.37 
	118.19,127.6 122.98,129.86 118.27,132.29 "/>
<polygon class="st1" points="149.67,126.28 139.23,118.88 127.21,123.29 131.02,111.07 123.11,101 135.91,100.85 143.04,90.22 
	147.14,102.34 159.46,105.84 149.19,113.48 "/>
<polygon class="st1" points="118.38,93.8 110.39,89.27 102.13,93.29 103.96,84.29 97.59,77.68 106.72,76.64 111.04,68.53 
	114.84,76.9 123.89,78.5 117.11,84.7 "/>
<polygon class="st1" points="122.33,50.42 117.26,49.65 113.75,53.38 112.92,48.33 108.28,46.14 112.84,43.79 113.48,38.7 
	117.12,42.31 122.16,41.35 119.86,45.93 "/>
</svg>
